# Blender v2.93.5 OBJ File: ''
# www.blender.org
o path25808
v 0.429061 -0.125000 -1.034364
v -0.428569 -0.125000 -1.034561
v -1.034980 -0.125000 -0.428486
v -1.035181 -0.125000 0.428277
v -0.429091 -0.125000 1.034421
v 0.428534 -0.125000 1.034561
v 1.034982 -0.125000 0.428912
v 1.035182 -0.125000 -0.427991
v 0.429061 0.125000 -1.034364
v -0.428569 0.125000 -1.034561
v -1.034980 0.125000 -0.428486
v -1.035181 0.125000 0.428277
v -0.429091 0.125000 1.034421
v 0.428534 0.125000 1.034561
v 1.034982 0.125000 0.428912
v 1.035182 0.125000 -0.427991
v -0.428569 -0.125000 -1.034561
v -0.428569 -0.125000 -1.034561
v -1.034980 -0.125000 -0.428486
v -1.034980 -0.125000 -0.428486
v 0.429061 0.125000 -1.034364
v 0.429061 0.125000 -1.034364
v -0.428569 0.125000 -1.034561
v -0.428569 0.125000 -1.034561
v 0.429061 -0.125000 -1.034364
v 0.429061 -0.125000 -1.034364
v 1.035182 0.125000 -0.427991
v 1.035182 0.125000 -0.427991
v -1.034980 0.125000 -0.428486
v -1.034980 0.125000 -0.428486
v -1.035181 0.125000 0.428277
v -1.035181 0.125000 0.428277
v 1.035182 -0.125000 -0.427991
v 1.035182 -0.125000 -0.427991
v -1.035181 -0.125000 0.428277
v -1.035181 -0.125000 0.428277
v 1.034982 0.125000 0.428912
v 1.034982 0.125000 0.428912
v -0.429091 0.125000 1.034421
v -0.429091 0.125000 1.034421
v 1.034982 -0.125000 0.428912
v 1.034982 -0.125000 0.428912
v -0.429091 -0.125000 1.034421
v -0.429091 -0.125000 1.034421
v 0.428534 0.125000 1.034561
v 0.428534 0.125000 1.034561
v 0.428534 -0.125000 1.034561
v 0.428534 -0.125000 1.034561
vt 0.492754 0.504141
vt 0.492754 0.504141
vt 0.492754 0.504141
vt 0.492754 0.504141
vt 0.492754 0.504141
vt 0.492754 0.504141
vt 0.492754 0.504141
vt 0.492754 0.504141
vt 0.492754 0.504141
vt 0.147409 0.005067
vt 0.352457 0.005000
vt 0.147534 0.995000
vt 0.492754 0.504141
vt 0.492754 0.504141
vt 0.492754 0.504141
vt 0.492754 0.504141
vt 0.492754 0.504141
vt 0.492754 0.504141
vt 0.492754 0.504141
vt 0.492754 0.504141
vt 0.492754 0.504141
vt 0.647543 0.005000
vt 0.997500 0.295085
vt 0.852466 0.995000
vt 0.492754 0.504141
vt 0.492754 0.504141
vt 0.492754 0.504141
vt 0.492754 0.504141
vt 0.492754 0.504141
vt 0.492754 0.504141
vt 0.492754 0.504141
vt 0.492754 0.504141
vt 0.492754 0.504141
vt 0.497452 0.294781
vt 0.497500 0.704778
vt 0.352583 0.994906
vt 0.002548 0.705015
vt 0.002500 0.295085
vt 0.492754 0.504141
vt 0.492754 0.504141
vt 0.492754 0.504141
vt 0.502500 0.704778
vt 0.502548 0.294781
vt 0.852591 0.005067
vt 0.997452 0.705015
vt 0.647417 0.994906
vt 0.492754 0.504141
vt 0.492754 0.504141
vn -0.7069 0.0000 -0.7073
vn 0.7066 0.0000 0.7076
vn -0.7071 0.0000 0.7071
vn 0.0000 1.0000 0.0000
vn 1.0000 0.0000 0.0002
vn -1.0000 0.0000 -0.0002
vn 0.7072 0.0000 -0.7069
vn 0.0000 -1.0000 0.0000
vn -0.0002 0.0000 1.0000
vn 0.0002 0.0000 -1.0000
s 1
f 19/1/1 24/2/1 17/3/1
f 42/4/2 46/5/2 48/6/2
f 43/7/3 32/8/3 36/9/3
f 40/10/4 45/11/4 23/12/4
f 34/13/5 15/14/5 41/15/5
f 35/16/6 11/17/6 20/18/6
f 26/19/7 16/20/7 33/21/7
f 47/22/8 4/23/8 18/24/8
f 6/25/9 13/26/9 5/27/9
f 2/28/10 9/29/10 1/30/10
f 19/1/1 29/31/1 24/2/1
f 42/4/2 38/32/2 46/5/2
f 43/7/3 39/33/3 32/8/3
f 45/11/4 37/34/4 27/35/4
f 27/35/4 21/36/4 45/11/4
f 21/36/4 23/12/4 45/11/4
f 23/12/4 30/37/4 31/38/4
f 31/38/4 40/10/4 23/12/4
f 34/13/5 28/39/5 15/14/5
f 35/16/6 12/40/6 11/17/6
f 26/19/7 22/41/7 16/20/7
f 8/42/8 7/43/8 47/22/8
f 47/22/8 44/44/8 4/23/8
f 4/23/8 3/45/8 18/24/8
f 18/24/8 25/46/8 8/42/8
f 8/42/8 47/22/8 18/24/8
f 6/25/9 14/47/9 13/26/9
f 2/28/10 10/48/10 9/29/10
